<svg xmlns="http://www.w3.org/2000/svg" xmlns:xlink="http://www.w3.org/1999/xlink" width="90" zoomAndPan="magnify" viewBox="0 0 67.5 67.499996" height="90" preserveAspectRatio="xMidYMid meet" version="1.0"><defs><g/></defs><g fill="#00aa13" fill-opacity="1"><g transform="translate(1.238442, 48.403527)"><g><path d="M 15.96875 -21.625 C 15.96875 -19.71875 15.664062 -18.296875 15.0625 -17.359375 C 14.46875 -16.429688 13.519531 -15.757812 12.21875 -15.34375 C 13.519531 -14.9375 14.46875 -14.265625 15.0625 -13.328125 C 15.664062 -12.398438 15.96875 -10.984375 15.96875 -9.078125 L 15.96875 -0.109375 C 15.96875 1.234375 16.3125 2.257812 17 2.96875 C 17.6875 3.675781 18.703125 4.03125 20.046875 4.03125 L 21.0625 4.03125 L 21.0625 10.859375 L 17.8125 10.859375 C 14.34375 10.859375 11.707031 10 9.90625 8.28125 C 8.113281 6.570312 7.21875 4.09375 7.21875 0.84375 L 7.21875 -9.296875 C 7.21875 -10.160156 7.003906 -10.816406 6.578125 -11.265625 C 6.148438 -11.710938 5.546875 -11.9375 4.765625 -11.9375 L 2.90625 -11.9375 L 2.90625 -18.765625 L 4.765625 -18.765625 C 5.546875 -18.765625 6.148438 -18.988281 6.578125 -19.4375 C 7.003906 -19.882812 7.21875 -20.535156 7.21875 -21.390625 L 7.21875 -31.53125 C 7.21875 -34.78125 8.113281 -37.265625 9.90625 -38.984375 C 11.707031 -40.703125 14.34375 -41.5625 17.8125 -41.5625 L 21.0625 -41.5625 L 21.0625 -34.734375 L 20.046875 -34.734375 C 18.703125 -34.734375 17.6875 -34.375 17 -33.65625 C 16.3125 -32.945312 15.96875 -31.921875 15.96875 -30.578125 Z M 15.96875 -21.625 "/></g></g></g><g fill="#00aa13" fill-opacity="1"><g transform="translate(15.631124, 48.403527)"><g><path d="M 2.90625 -19.265625 L 18.765625 -19.265625 L 18.765625 -12.265625 L 2.90625 -12.265625 Z M 2.90625 -19.265625 "/></g></g></g><g fill="#00aa13" fill-opacity="1"><g transform="translate(29.743778, 48.403527)"><g><path d="M 2.90625 -19.265625 L 18.765625 -19.265625 L 18.765625 -12.265625 L 2.90625 -12.265625 Z M 2.90625 -19.265625 "/></g></g></g><g fill="#00aa13" fill-opacity="1"><g transform="translate(43.856432, 48.403527)"><g><path d="M 18.984375 -18.765625 L 18.984375 -11.9375 L 17.140625 -11.9375 C 16.359375 -11.9375 15.75 -11.710938 15.3125 -11.265625 C 14.882812 -10.816406 14.671875 -10.160156 14.671875 -9.296875 L 14.671875 0.84375 C 14.671875 4.09375 13.773438 6.570312 11.984375 8.28125 C 10.191406 10 7.5625 10.859375 4.09375 10.859375 L 0.84375 10.859375 L 0.84375 4.03125 L 1.84375 4.03125 C 3.1875 4.03125 4.203125 3.675781 4.890625 2.96875 C 5.585938 2.257812 5.9375 1.234375 5.9375 -0.109375 L 5.9375 -9.078125 C 5.9375 -10.984375 6.234375 -12.398438 6.828125 -13.328125 C 7.429688 -14.265625 8.382812 -14.9375 9.6875 -15.34375 C 8.382812 -15.757812 7.429688 -16.429688 6.828125 -17.359375 C 6.234375 -18.296875 5.9375 -19.71875 5.9375 -21.625 L 5.9375 -30.578125 C 5.9375 -31.921875 5.585938 -32.945312 4.890625 -33.65625 C 4.203125 -34.375 3.1875 -34.734375 1.84375 -34.734375 L 0.84375 -34.734375 L 0.84375 -41.5625 L 4.09375 -41.5625 C 7.5625 -41.5625 10.191406 -40.703125 11.984375 -38.984375 C 13.773438 -37.265625 14.671875 -34.78125 14.671875 -31.53125 L 14.671875 -21.390625 C 14.671875 -20.535156 14.882812 -19.882812 15.3125 -19.4375 C 15.75 -18.988281 16.359375 -18.765625 17.140625 -18.765625 Z M 18.984375 -18.765625 "/></g></g></g></svg>